<?xml version="1.0" encoding="UTF-8" standalone="no"?>
<!DOCTYPE svg PUBLIC "-//W3C//DTD SVG 1.1//EN"
 "http://www.w3.org/Graphics/SVG/1.1/DTD/svg11.dtd">
<!-- Generated by graphviz version 2.40.1 (20161225.0304)
 -->
<!-- Title: %0 Pages: 1 -->
<svg width="238pt" height="54pt"
 viewBox="0.00 0.00 238.15 54.40" xmlns="http://www.w3.org/2000/svg" xmlns:xlink="http://www.w3.org/1999/xlink">
<g id="graph0" class="graph" transform="scale(1 1) rotate(0) translate(4 50.4)">
<title>%0</title>
<polygon fill="#ffffff" stroke="transparent" points="-4,4 -4,-50.4 234.1457,-50.4 234.1457,4 -4,4"/>
<text text-anchor="middle" x="115.0728" y="-28" font-family="Roboto Condensed, sans-serif" font-size="16.00" fill="#000000">axios&#45;retry</text>
<!-- axios&#45;retry@3.1.9 -->
<g id="node1" class="node">
<title>axios&#45;retry@3.1.9</title>
<path fill="none" stroke="#000000" d="M79.1926,-19.3011C79.1926,-19.3011 6.5805,-19.3011 6.5805,-19.3011 3.3468,-19.3011 .1132,-16.0674 .1132,-12.8337 .1132,-12.8337 .1132,-6.3663 .1132,-6.3663 .1132,-3.1326 3.3468,.1011 6.5805,.1011 6.5805,.1011 79.1926,.1011 79.1926,.1011 82.4263,.1011 85.6599,-3.1326 85.6599,-6.3663 85.6599,-6.3663 85.6599,-12.8337 85.6599,-12.8337 85.6599,-16.0674 82.4263,-19.3011 79.1926,-19.3011"/>
<text text-anchor="middle" x="42.8866" y="-6.3" font-family="Roboto Condensed, sans-serif" font-size="11.00" fill="#000000">axios&#45;retry@3.1.9</text>
</g>
<!-- is&#45;retry&#45;allowed@2.2.0 -->
<g id="node2" class="node">
<title>is&#45;retry&#45;allowed@2.2.0</title>
<path fill="none" stroke="#000000" d="M223.8653,-19.3011C223.8653,-19.3011 128.0535,-19.3011 128.0535,-19.3011 124.8198,-19.3011 121.5862,-16.0674 121.5862,-12.8337 121.5862,-12.8337 121.5862,-6.3663 121.5862,-6.3663 121.5862,-3.1326 124.8198,.1011 128.0535,.1011 128.0535,.1011 223.8653,.1011 223.8653,.1011 227.099,.1011 230.3326,-3.1326 230.3326,-6.3663 230.3326,-6.3663 230.3326,-12.8337 230.3326,-12.8337 230.3326,-16.0674 227.099,-19.3011 223.8653,-19.3011"/>
<text text-anchor="middle" x="175.9594" y="-6.3" font-family="Roboto Condensed, sans-serif" font-size="11.00" fill="#000000">is&#45;retry&#45;allowed@2.2.0</text>
</g>
<!-- axios&#45;retry@3.1.9&#45;&gt;is&#45;retry&#45;allowed@2.2.0 -->
<g id="edge1" class="edge">
<title>axios&#45;retry@3.1.9&#45;&gt;is&#45;retry&#45;allowed@2.2.0</title>
<path fill="none" stroke="#000000" d="M85.7241,-9.6C93.9157,-9.6 102.6584,-9.6 111.3571,-9.6"/>
<polygon fill="#000000" stroke="#000000" points="111.5127,-13.1001 121.5126,-9.6 111.5126,-6.1001 111.5127,-13.1001"/>
</g>
</g>
</svg>
